<mxfile host="www.draw.io" modified="2020-02-06T16:47:18.584Z" agent="Mozilla/5.0 (Windows NT 10.0; WOW64) AppleWebKit/537.36 (KHTML, like Gecko) Chrome/79.0.3945.136 YaBrowser/20.2.1.248 Yowser/2.5 Safari/537.36" etag="xD5QqE84xsrQML-CGVsd" version="12.6.5" type="github">
  <diagram id="prtHgNgQTEPvFCAcTncT" name="Page-1">
    <mxGraphModel dx="827" dy="929" grid="1" gridSize="10" guides="1" tooltips="1" connect="1" arrows="1" fold="1" page="1" pageScale="1" pageWidth="827" pageHeight="1169" math="0" shadow="0">
      <root>
        <mxCell id="0"/>
        <mxCell id="1" parent="0"/>
        <mxCell id="jdtG7Yh1p48Bzpzom1qN-37" value="" style="group" parent="1" vertex="1" connectable="0">
          <mxGeometry x="20" y="19.999999999999943" width="120" height="40" as="geometry"/>
        </mxCell>
        <mxCell id="n9Zh9XnR0L69BOQKEp_e-7" value="Ввод параметров экрана: FPS = 60&lt;br&gt;WIDTH = 1920&lt;br&gt;HEIGHT = 1080&lt;br&gt;fullscreen = 1&lt;br&gt;" style="rounded=0;whiteSpace=wrap;html=1;" parent="1" vertex="1">
          <mxGeometry x="40" y="80" width="160" height="80" as="geometry"/>
        </mxCell>
        <mxCell id="n9Zh9XnR0L69BOQKEp_e-13" value="&lt;div style=&quot;white-space: normal&quot;&gt;Ввод цветов: BLACK, ORANGE, BLUE..&lt;/div&gt;" style="rounded=0;whiteSpace=wrap;html=1;" parent="1" vertex="1">
          <mxGeometry x="40" y="160" width="160" height="40" as="geometry"/>
        </mxCell>
        <mxCell id="n9Zh9XnR0L69BOQKEp_e-17" value="&lt;span style=&quot;white-space: normal&quot;&gt;Ввод параметров мыши: mouse_start_len = 3&lt;/span&gt;&lt;br style=&quot;white-space: normal&quot;&gt;&lt;div style=&quot;white-space: normal&quot;&gt;mouse_len = 7&lt;/div&gt;&lt;div style=&quot;white-space: normal&quot;&gt;mouse_thickness = 3&lt;/div&gt;" style="rounded=0;whiteSpace=wrap;html=1;" parent="1" vertex="1">
          <mxGeometry x="40" y="200" width="160" height="80" as="geometry"/>
        </mxCell>
        <mxCell id="n9Zh9XnR0L69BOQKEp_e-27" value="Вёрстка окна:&lt;br&gt;Инициализация pygame,&lt;br&gt;создание плоскости surf_main,&lt;br&gt;изменение названия окна &quot;DuckHuntZK&quot;,&lt;br&gt;изменение иконки приложения,&lt;br&gt;изменение видимости мыши (нет)" style="rounded=0;whiteSpace=wrap;html=1;" parent="1" vertex="1">
          <mxGeometry x="40" y="280" width="160" height="160" as="geometry"/>
        </mxCell>
        <mxCell id="kuAtARL2WekMiC1p0sdf-1" value="Начало:&lt;br&gt;Импорт os, pygame, random" style="rounded=0;whiteSpace=wrap;html=1;fillColor=#ffe6cc;strokeColor=#000000;" vertex="1" parent="1">
          <mxGeometry x="40" y="40" width="160" height="40" as="geometry"/>
        </mxCell>
        <mxCell id="kuAtARL2WekMiC1p0sdf-10" value="" style="group;strokeColor=#000000;fillColor=#FFFFFF;" vertex="1" connectable="0" parent="1">
          <mxGeometry x="40" y="440" width="160" height="40" as="geometry"/>
        </mxCell>
        <mxCell id="kuAtARL2WekMiC1p0sdf-11" value="" style="group" vertex="1" connectable="0" parent="kuAtARL2WekMiC1p0sdf-10">
          <mxGeometry width="160" height="40" as="geometry"/>
        </mxCell>
        <mxCell id="kuAtARL2WekMiC1p0sdf-12" value="" style="group" vertex="1" connectable="0" parent="kuAtARL2WekMiC1p0sdf-11">
          <mxGeometry width="160" height="40" as="geometry"/>
        </mxCell>
        <mxCell id="kuAtARL2WekMiC1p0sdf-13" value="" style="rounded=0;whiteSpace=wrap;html=1;fillColor=#A8C6E3;strokeColor=#000000;fontColor=#ffffff;" vertex="1" parent="kuAtARL2WekMiC1p0sdf-12">
          <mxGeometry x="133.33333333333334" width="26.666666666666668" height="40" as="geometry"/>
        </mxCell>
        <mxCell id="kuAtARL2WekMiC1p0sdf-14" value="" style="rounded=0;whiteSpace=wrap;html=1;fillColor=#A8C6E3;strokeColor=#000000;fontColor=#ffffff;" vertex="1" parent="kuAtARL2WekMiC1p0sdf-12">
          <mxGeometry width="26.666666666666668" height="40" as="geometry"/>
        </mxCell>
        <mxCell id="kuAtARL2WekMiC1p0sdf-15" value="MenuWindow()" style="rounded=0;whiteSpace=wrap;html=1;fillColor=#d5e8d4;strokeColor=#000000;" vertex="1" parent="kuAtARL2WekMiC1p0sdf-12">
          <mxGeometry x="26.666666666666668" width="106.66666666666667" height="40" as="geometry"/>
        </mxCell>
        <mxCell id="kuAtARL2WekMiC1p0sdf-53" style="edgeStyle=orthogonalEdgeStyle;rounded=0;orthogonalLoop=1;jettySize=auto;html=1;exitX=0.5;exitY=1;exitDx=0;exitDy=0;entryX=0.5;entryY=0;entryDx=0;entryDy=0;" edge="1" parent="1" source="kuAtARL2WekMiC1p0sdf-15" target="kuAtARL2WekMiC1p0sdf-51">
          <mxGeometry relative="1" as="geometry">
            <mxPoint x="280" y="-10" as="targetPoint"/>
          </mxGeometry>
        </mxCell>
        <mxCell id="n9Zh9XnR0L69BOQKEp_e-25" value="Создание кнопок:&lt;br&gt;button1, button2, button3" style="rounded=0;whiteSpace=wrap;html=1;" parent="1" vertex="1">
          <mxGeometry x="240" y="79.99999999999999" width="160" height="39.999999999999986" as="geometry"/>
        </mxCell>
        <mxCell id="n9Zh9XnR0L69BOQKEp_e-26" value="Загрузка изображения menuwindow,&lt;br&gt;создание плоскости из изображения menuwindow в menuwindow_rect" style="rounded=0;whiteSpace=wrap;html=1;" parent="1" vertex="1">
          <mxGeometry x="240" y="119.99999999999997" width="160" height="79.99999999999997" as="geometry"/>
        </mxCell>
        <mxCell id="kuAtARL2WekMiC1p0sdf-46" value="" style="group;strokeColor=#000000;fillColor=#FFFFFF;" vertex="1" connectable="0" parent="1">
          <mxGeometry x="240" y="40" width="160" height="39.999999999999986" as="geometry"/>
        </mxCell>
        <mxCell id="kuAtARL2WekMiC1p0sdf-47" value="" style="group" vertex="1" connectable="0" parent="kuAtARL2WekMiC1p0sdf-46">
          <mxGeometry width="160" height="39.999999999999986" as="geometry"/>
        </mxCell>
        <mxCell id="kuAtARL2WekMiC1p0sdf-48" value="" style="group" vertex="1" connectable="0" parent="kuAtARL2WekMiC1p0sdf-47">
          <mxGeometry width="160" height="39.999999999999986" as="geometry"/>
        </mxCell>
        <mxCell id="kuAtARL2WekMiC1p0sdf-49" value="" style="rounded=0;whiteSpace=wrap;html=1;fillColor=#A8C6E3;strokeColor=#000000;fontColor=#ffffff;" vertex="1" parent="kuAtARL2WekMiC1p0sdf-48">
          <mxGeometry x="133.33333333333331" width="26.666666666666664" height="39.999999999999986" as="geometry"/>
        </mxCell>
        <mxCell id="kuAtARL2WekMiC1p0sdf-50" value="" style="rounded=0;whiteSpace=wrap;html=1;fillColor=#A8C6E3;strokeColor=#000000;fontColor=#ffffff;" vertex="1" parent="kuAtARL2WekMiC1p0sdf-48">
          <mxGeometry width="26.666666666666664" height="39.999999999999986" as="geometry"/>
        </mxCell>
        <mxCell id="kuAtARL2WekMiC1p0sdf-51" value="MenuWindow()" style="rounded=0;whiteSpace=wrap;html=1;fillColor=#d5e8d4;strokeColor=#000000;" vertex="1" parent="kuAtARL2WekMiC1p0sdf-48">
          <mxGeometry x="26.666666666666664" width="106.66666666666666" height="39.999999999999986" as="geometry"/>
        </mxCell>
        <mxCell id="kuAtARL2WekMiC1p0sdf-73" value="" style="group;strokeColor=#000000;fillColor=#FFFFFF;" vertex="1" connectable="0" parent="1">
          <mxGeometry x="240" y="200" width="160" height="80.00000000000011" as="geometry"/>
        </mxCell>
        <mxCell id="kuAtARL2WekMiC1p0sdf-74" value="" style="rounded=0;whiteSpace=wrap;html=1;" vertex="1" parent="kuAtARL2WekMiC1p0sdf-73">
          <mxGeometry width="160" height="80" as="geometry"/>
        </mxCell>
        <mxCell id="kuAtARL2WekMiC1p0sdf-75" value="True" style="rounded=0;whiteSpace=wrap;html=1;fillColor=none;strokeColor=none;" vertex="1" parent="kuAtARL2WekMiC1p0sdf-73">
          <mxGeometry width="160" height="30" as="geometry"/>
        </mxCell>
        <mxCell id="kuAtARL2WekMiC1p0sdf-76" value="" style="rounded=0;whiteSpace=wrap;html=1;" vertex="1" parent="kuAtARL2WekMiC1p0sdf-73">
          <mxGeometry x="40" y="40" width="120" height="40" as="geometry"/>
        </mxCell>
        <mxCell id="kuAtARL2WekMiC1p0sdf-77" value="" style="group;strokeColor=#000000;fillColor=#FFFFFF;" vertex="1" connectable="0" parent="kuAtARL2WekMiC1p0sdf-73">
          <mxGeometry x="30" y="30" width="130" height="50" as="geometry"/>
        </mxCell>
        <mxCell id="kuAtARL2WekMiC1p0sdf-78" value="" style="group" vertex="1" connectable="0" parent="kuAtARL2WekMiC1p0sdf-77">
          <mxGeometry width="130" height="50" as="geometry"/>
        </mxCell>
        <mxCell id="kuAtARL2WekMiC1p0sdf-79" value="" style="group" vertex="1" connectable="0" parent="kuAtARL2WekMiC1p0sdf-78">
          <mxGeometry width="130" height="50" as="geometry"/>
        </mxCell>
        <mxCell id="kuAtARL2WekMiC1p0sdf-80" value="" style="rounded=0;whiteSpace=wrap;html=1;fillColor=#A8C6E3;strokeColor=#000000;fontColor=#ffffff;" vertex="1" parent="kuAtARL2WekMiC1p0sdf-79">
          <mxGeometry x="108.33333333333333" width="21.666666666666664" height="50" as="geometry"/>
        </mxCell>
        <mxCell id="kuAtARL2WekMiC1p0sdf-81" value="" style="rounded=0;whiteSpace=wrap;html=1;fillColor=#A8C6E3;strokeColor=#000000;fontColor=#ffffff;" vertex="1" parent="kuAtARL2WekMiC1p0sdf-79">
          <mxGeometry width="21.666666666666664" height="50" as="geometry"/>
        </mxCell>
        <mxCell id="kuAtARL2WekMiC1p0sdf-82" value="Бесконечный цикл MenuWindow()" style="rounded=0;whiteSpace=wrap;html=1;fillColor=#ffff88;strokeColor=#000000;" vertex="1" parent="kuAtARL2WekMiC1p0sdf-79">
          <mxGeometry x="21.666666666666664" width="86.66666666666666" height="50" as="geometry"/>
        </mxCell>
        <mxCell id="kuAtARL2WekMiC1p0sdf-83" value="" style="group;strokeColor=#000000;fillColor=#FFFFFF;" vertex="1" connectable="0" parent="1">
          <mxGeometry x="440" y="40" width="160" height="40" as="geometry"/>
        </mxCell>
        <mxCell id="kuAtARL2WekMiC1p0sdf-84" value="" style="group" vertex="1" connectable="0" parent="kuAtARL2WekMiC1p0sdf-83">
          <mxGeometry width="160" height="40" as="geometry"/>
        </mxCell>
        <mxCell id="kuAtARL2WekMiC1p0sdf-85" value="" style="group" vertex="1" connectable="0" parent="kuAtARL2WekMiC1p0sdf-84">
          <mxGeometry width="160" height="40" as="geometry"/>
        </mxCell>
        <mxCell id="kuAtARL2WekMiC1p0sdf-86" value="" style="rounded=0;whiteSpace=wrap;html=1;fillColor=#A8C6E3;strokeColor=#000000;fontColor=#ffffff;" vertex="1" parent="kuAtARL2WekMiC1p0sdf-85">
          <mxGeometry x="133.33333333333331" width="26.666666666666664" height="40" as="geometry"/>
        </mxCell>
        <mxCell id="kuAtARL2WekMiC1p0sdf-87" value="" style="rounded=0;whiteSpace=wrap;html=1;fillColor=#A8C6E3;strokeColor=#000000;fontColor=#ffffff;" vertex="1" parent="kuAtARL2WekMiC1p0sdf-85">
          <mxGeometry width="26.666666666666664" height="40" as="geometry"/>
        </mxCell>
        <mxCell id="kuAtARL2WekMiC1p0sdf-88" value="&lt;span style=&quot;white-space: normal&quot;&gt;Бесконечный цикл MenuWindow()&lt;/span&gt;" style="rounded=0;whiteSpace=wrap;html=1;fillColor=#ffff88;strokeColor=#36393d;" vertex="1" parent="kuAtARL2WekMiC1p0sdf-85">
          <mxGeometry x="26.666666666666664" width="106.66666666666666" height="40" as="geometry"/>
        </mxCell>
        <mxCell id="kuAtARL2WekMiC1p0sdf-91" style="edgeStyle=orthogonalEdgeStyle;rounded=0;orthogonalLoop=1;jettySize=auto;html=1;entryX=0.5;entryY=0;entryDx=0;entryDy=0;exitX=0.5;exitY=1;exitDx=0;exitDy=0;" edge="1" parent="1" source="kuAtARL2WekMiC1p0sdf-82" target="kuAtARL2WekMiC1p0sdf-88">
          <mxGeometry relative="1" as="geometry"/>
        </mxCell>
        <mxCell id="kuAtARL2WekMiC1p0sdf-93" value="Отрисовка плоскости menuwindow на плоскости surf_main" style="rounded=0;whiteSpace=wrap;html=1;strokeColor=#000000;fillColor=#FFFFFF;" vertex="1" parent="1">
          <mxGeometry x="440" y="80" width="160" height="50" as="geometry"/>
        </mxCell>
        <mxCell id="kuAtARL2WekMiC1p0sdf-95" value="" style="group;strokeColor=#000000;fillColor=#FFFFFF;" vertex="1" connectable="0" parent="1">
          <mxGeometry x="440" y="130" width="160" height="70" as="geometry"/>
        </mxCell>
        <mxCell id="kuAtARL2WekMiC1p0sdf-96" value="" style="rounded=0;whiteSpace=wrap;html=1;" vertex="1" parent="kuAtARL2WekMiC1p0sdf-95">
          <mxGeometry width="160" height="70" as="geometry"/>
        </mxCell>
        <mxCell id="kuAtARL2WekMiC1p0sdf-97" value="for event in pygame.event.get():" style="rounded=0;whiteSpace=wrap;html=1;fillColor=none;strokeColor=none;" vertex="1" parent="kuAtARL2WekMiC1p0sdf-95">
          <mxGeometry width="160" height="35" as="geometry"/>
        </mxCell>
        <mxCell id="kuAtARL2WekMiC1p0sdf-98" value="" style="rounded=0;whiteSpace=wrap;html=1;" vertex="1" parent="kuAtARL2WekMiC1p0sdf-95">
          <mxGeometry x="26.666666666666664" y="35" width="133.33333333333331" height="35" as="geometry"/>
        </mxCell>
        <mxCell id="kuAtARL2WekMiC1p0sdf-146" value="" style="group" vertex="1" connectable="0" parent="1">
          <mxGeometry x="40" y="560" width="720" height="200" as="geometry"/>
        </mxCell>
        <mxCell id="kuAtARL2WekMiC1p0sdf-122" value="" style="group" vertex="1" connectable="0" parent="kuAtARL2WekMiC1p0sdf-146">
          <mxGeometry width="720" height="200" as="geometry"/>
        </mxCell>
        <mxCell id="kuAtARL2WekMiC1p0sdf-99" value="" style="group;strokeColor=#000000;fillColor=#FFFFFF;" vertex="1" connectable="0" parent="kuAtARL2WekMiC1p0sdf-122">
          <mxGeometry width="720" height="200" as="geometry"/>
        </mxCell>
        <mxCell id="kuAtARL2WekMiC1p0sdf-100" value="" style="group;fillColor=none;" vertex="1" connectable="0" parent="kuAtARL2WekMiC1p0sdf-99">
          <mxGeometry width="720" height="200" as="geometry"/>
        </mxCell>
        <mxCell id="kuAtARL2WekMiC1p0sdf-101" value="" style="rounded=0;whiteSpace=wrap;html=1;fillColor=none;" vertex="1" parent="kuAtARL2WekMiC1p0sdf-100">
          <mxGeometry width="720" height="120" as="geometry"/>
        </mxCell>
        <mxCell id="kuAtARL2WekMiC1p0sdf-102" value="" style="group;fillColor=none;" vertex="1" connectable="0" parent="kuAtARL2WekMiC1p0sdf-100">
          <mxGeometry width="720" height="120" as="geometry"/>
        </mxCell>
        <mxCell id="kuAtARL2WekMiC1p0sdf-103" value="" style="group" vertex="1" connectable="0" parent="kuAtARL2WekMiC1p0sdf-102">
          <mxGeometry width="720" height="120" as="geometry"/>
        </mxCell>
        <mxCell id="kuAtARL2WekMiC1p0sdf-104" value="" style="group" vertex="1" connectable="0" parent="kuAtARL2WekMiC1p0sdf-103">
          <mxGeometry width="720" height="80" as="geometry"/>
        </mxCell>
        <mxCell id="kuAtARL2WekMiC1p0sdf-105" value="event.type == pygame.QUIT:" style="group;fillColor=#ffffff;" vertex="1" connectable="0" parent="kuAtARL2WekMiC1p0sdf-104">
          <mxGeometry width="720" height="80" as="geometry"/>
        </mxCell>
        <mxCell id="kuAtARL2WekMiC1p0sdf-106" style="edgeStyle=orthogonalEdgeStyle;rounded=0;orthogonalLoop=1;jettySize=auto;html=1;exitX=0.5;exitY=1;exitDx=0;exitDy=0;" edge="1" parent="kuAtARL2WekMiC1p0sdf-105">
          <mxGeometry relative="1" as="geometry">
            <mxPoint x="360" y="80" as="sourcePoint"/>
            <mxPoint x="360" y="80" as="targetPoint"/>
          </mxGeometry>
        </mxCell>
        <mxCell id="kuAtARL2WekMiC1p0sdf-107" value="" style="endArrow=none;html=1;" edge="1" parent="kuAtARL2WekMiC1p0sdf-105">
          <mxGeometry width="50" height="50" relative="1" as="geometry">
            <mxPoint as="sourcePoint"/>
            <mxPoint x="360" y="80" as="targetPoint"/>
          </mxGeometry>
        </mxCell>
        <mxCell id="kuAtARL2WekMiC1p0sdf-108" value="" style="endArrow=none;html=1;" edge="1" parent="kuAtARL2WekMiC1p0sdf-105">
          <mxGeometry width="50" height="50" relative="1" as="geometry">
            <mxPoint x="360" y="80" as="sourcePoint"/>
            <mxPoint x="720" as="targetPoint"/>
          </mxGeometry>
        </mxCell>
        <mxCell id="kuAtARL2WekMiC1p0sdf-109" value="" style="endArrow=none;html=1;" edge="1" parent="kuAtARL2WekMiC1p0sdf-105">
          <mxGeometry width="50" height="50" relative="1" as="geometry">
            <mxPoint as="sourcePoint"/>
            <mxPoint x="720" as="targetPoint"/>
          </mxGeometry>
        </mxCell>
        <mxCell id="kuAtARL2WekMiC1p0sdf-110" value="" style="group" vertex="1" connectable="0" parent="kuAtARL2WekMiC1p0sdf-105">
          <mxGeometry x="360" width="360" height="80" as="geometry"/>
        </mxCell>
        <mxCell id="kuAtARL2WekMiC1p0sdf-111" value="" style="endArrow=none;html=1;" edge="1" parent="kuAtARL2WekMiC1p0sdf-110">
          <mxGeometry width="50" height="50" relative="1" as="geometry">
            <mxPoint y="80" as="sourcePoint"/>
            <mxPoint x="360" as="targetPoint"/>
          </mxGeometry>
        </mxCell>
        <mxCell id="kuAtARL2WekMiC1p0sdf-112" value="" style="endArrow=none;html=1;" edge="1" parent="kuAtARL2WekMiC1p0sdf-110">
          <mxGeometry width="50" height="50" relative="1" as="geometry">
            <mxPoint x="360" y="80" as="sourcePoint"/>
            <mxPoint x="360" as="targetPoint"/>
          </mxGeometry>
        </mxCell>
        <mxCell id="kuAtARL2WekMiC1p0sdf-113" value="" style="endArrow=none;html=1;" edge="1" parent="kuAtARL2WekMiC1p0sdf-110">
          <mxGeometry width="50" height="50" relative="1" as="geometry">
            <mxPoint y="80" as="sourcePoint"/>
            <mxPoint x="360" y="80" as="targetPoint"/>
          </mxGeometry>
        </mxCell>
        <mxCell id="kuAtARL2WekMiC1p0sdf-114" value="" style="group" vertex="1" connectable="0" parent="kuAtARL2WekMiC1p0sdf-105">
          <mxGeometry width="360" height="80" as="geometry"/>
        </mxCell>
        <mxCell id="kuAtARL2WekMiC1p0sdf-115" value="" style="endArrow=none;html=1;" edge="1" parent="kuAtARL2WekMiC1p0sdf-114">
          <mxGeometry width="50" height="50" relative="1" as="geometry">
            <mxPoint y="80" as="sourcePoint"/>
            <mxPoint as="targetPoint"/>
          </mxGeometry>
        </mxCell>
        <mxCell id="kuAtARL2WekMiC1p0sdf-116" value="" style="endArrow=none;html=1;" edge="1" parent="kuAtARL2WekMiC1p0sdf-114">
          <mxGeometry width="50" height="50" relative="1" as="geometry">
            <mxPoint as="sourcePoint"/>
            <mxPoint x="360" y="80" as="targetPoint"/>
          </mxGeometry>
        </mxCell>
        <mxCell id="kuAtARL2WekMiC1p0sdf-117" value="" style="endArrow=none;html=1;" edge="1" parent="kuAtARL2WekMiC1p0sdf-114">
          <mxGeometry width="50" height="50" relative="1" as="geometry">
            <mxPoint y="80" as="sourcePoint"/>
            <mxPoint x="360" y="80" as="targetPoint"/>
          </mxGeometry>
        </mxCell>
        <mxCell id="kuAtARL2WekMiC1p0sdf-118" value="True" style="rounded=0;whiteSpace=wrap;html=1;fillColor=#ffffff;strokeColor=none;align=left;" vertex="1" parent="kuAtARL2WekMiC1p0sdf-105">
          <mxGeometry x="6" y="56" width="234" height="14" as="geometry"/>
        </mxCell>
        <mxCell id="kuAtARL2WekMiC1p0sdf-119" value="False" style="rounded=0;whiteSpace=wrap;html=1;fillColor=#ffffff;strokeColor=none;align=right;" vertex="1" parent="kuAtARL2WekMiC1p0sdf-105">
          <mxGeometry x="479.99999999999994" y="56" width="234" height="14" as="geometry"/>
        </mxCell>
        <mxCell id="kuAtARL2WekMiC1p0sdf-120" value="quit()" style="rounded=0;whiteSpace=wrap;html=1;fillColor=#ffffff;" vertex="1" parent="kuAtARL2WekMiC1p0sdf-103">
          <mxGeometry y="80" width="360" height="40" as="geometry"/>
        </mxCell>
        <mxCell id="kuAtARL2WekMiC1p0sdf-123" value="" style="group;strokeColor=#000000;fillColor=#FFFFFF;" vertex="1" connectable="0" parent="kuAtARL2WekMiC1p0sdf-100">
          <mxGeometry x="360" y="80" width="360" height="120" as="geometry"/>
        </mxCell>
        <mxCell id="kuAtARL2WekMiC1p0sdf-124" value="" style="group;fillColor=none;" vertex="1" connectable="0" parent="kuAtARL2WekMiC1p0sdf-123">
          <mxGeometry width="360" height="120" as="geometry"/>
        </mxCell>
        <mxCell id="kuAtARL2WekMiC1p0sdf-125" value="" style="rounded=0;whiteSpace=wrap;html=1;fillColor=none;" vertex="1" parent="kuAtARL2WekMiC1p0sdf-124">
          <mxGeometry width="360" height="120" as="geometry"/>
        </mxCell>
        <mxCell id="kuAtARL2WekMiC1p0sdf-126" value="" style="group;fillColor=none;" vertex="1" connectable="0" parent="kuAtARL2WekMiC1p0sdf-124">
          <mxGeometry width="360" height="120" as="geometry"/>
        </mxCell>
        <mxCell id="kuAtARL2WekMiC1p0sdf-127" value="" style="group" vertex="1" connectable="0" parent="kuAtARL2WekMiC1p0sdf-126">
          <mxGeometry width="360" height="120" as="geometry"/>
        </mxCell>
        <mxCell id="kuAtARL2WekMiC1p0sdf-128" value="" style="group" vertex="1" connectable="0" parent="kuAtARL2WekMiC1p0sdf-127">
          <mxGeometry width="360" height="80" as="geometry"/>
        </mxCell>
        <mxCell id="kuAtARL2WekMiC1p0sdf-129" value="event.type == pygame.MOUSEBUTTONDOWN:" style="group;fillColor=#ffffff;" vertex="1" connectable="0" parent="kuAtARL2WekMiC1p0sdf-128">
          <mxGeometry width="360" height="80" as="geometry"/>
        </mxCell>
        <mxCell id="kuAtARL2WekMiC1p0sdf-130" style="edgeStyle=orthogonalEdgeStyle;rounded=0;orthogonalLoop=1;jettySize=auto;html=1;exitX=0.5;exitY=1;exitDx=0;exitDy=0;" edge="1" parent="kuAtARL2WekMiC1p0sdf-129">
          <mxGeometry relative="1" as="geometry">
            <mxPoint x="180" y="80" as="sourcePoint"/>
            <mxPoint x="180" y="80" as="targetPoint"/>
          </mxGeometry>
        </mxCell>
        <mxCell id="kuAtARL2WekMiC1p0sdf-131" value="" style="endArrow=none;html=1;" edge="1" parent="kuAtARL2WekMiC1p0sdf-129">
          <mxGeometry width="50" height="50" relative="1" as="geometry">
            <mxPoint as="sourcePoint"/>
            <mxPoint x="180" y="80" as="targetPoint"/>
          </mxGeometry>
        </mxCell>
        <mxCell id="kuAtARL2WekMiC1p0sdf-132" value="" style="endArrow=none;html=1;" edge="1" parent="kuAtARL2WekMiC1p0sdf-129">
          <mxGeometry width="50" height="50" relative="1" as="geometry">
            <mxPoint x="180" y="80" as="sourcePoint"/>
            <mxPoint x="360" as="targetPoint"/>
          </mxGeometry>
        </mxCell>
        <mxCell id="kuAtARL2WekMiC1p0sdf-133" value="" style="endArrow=none;html=1;" edge="1" parent="kuAtARL2WekMiC1p0sdf-129">
          <mxGeometry width="50" height="50" relative="1" as="geometry">
            <mxPoint as="sourcePoint"/>
            <mxPoint x="360" as="targetPoint"/>
          </mxGeometry>
        </mxCell>
        <mxCell id="kuAtARL2WekMiC1p0sdf-134" value="" style="group" vertex="1" connectable="0" parent="kuAtARL2WekMiC1p0sdf-129">
          <mxGeometry x="180" width="180" height="80" as="geometry"/>
        </mxCell>
        <mxCell id="kuAtARL2WekMiC1p0sdf-135" value="" style="endArrow=none;html=1;" edge="1" parent="kuAtARL2WekMiC1p0sdf-134">
          <mxGeometry width="50" height="50" relative="1" as="geometry">
            <mxPoint y="80" as="sourcePoint"/>
            <mxPoint x="180" as="targetPoint"/>
          </mxGeometry>
        </mxCell>
        <mxCell id="kuAtARL2WekMiC1p0sdf-136" value="" style="endArrow=none;html=1;" edge="1" parent="kuAtARL2WekMiC1p0sdf-134">
          <mxGeometry width="50" height="50" relative="1" as="geometry">
            <mxPoint x="180" y="80" as="sourcePoint"/>
            <mxPoint x="180" as="targetPoint"/>
          </mxGeometry>
        </mxCell>
        <mxCell id="kuAtARL2WekMiC1p0sdf-137" value="" style="endArrow=none;html=1;" edge="1" parent="kuAtARL2WekMiC1p0sdf-134">
          <mxGeometry width="50" height="50" relative="1" as="geometry">
            <mxPoint y="80" as="sourcePoint"/>
            <mxPoint x="180" y="80" as="targetPoint"/>
          </mxGeometry>
        </mxCell>
        <mxCell id="kuAtARL2WekMiC1p0sdf-138" value="" style="group" vertex="1" connectable="0" parent="kuAtARL2WekMiC1p0sdf-129">
          <mxGeometry width="180" height="80" as="geometry"/>
        </mxCell>
        <mxCell id="kuAtARL2WekMiC1p0sdf-139" value="" style="endArrow=none;html=1;" edge="1" parent="kuAtARL2WekMiC1p0sdf-138">
          <mxGeometry width="50" height="50" relative="1" as="geometry">
            <mxPoint y="80" as="sourcePoint"/>
            <mxPoint as="targetPoint"/>
          </mxGeometry>
        </mxCell>
        <mxCell id="kuAtARL2WekMiC1p0sdf-140" value="" style="endArrow=none;html=1;" edge="1" parent="kuAtARL2WekMiC1p0sdf-138">
          <mxGeometry width="50" height="50" relative="1" as="geometry">
            <mxPoint as="sourcePoint"/>
            <mxPoint x="180" y="80" as="targetPoint"/>
          </mxGeometry>
        </mxCell>
        <mxCell id="kuAtARL2WekMiC1p0sdf-141" value="" style="endArrow=none;html=1;" edge="1" parent="kuAtARL2WekMiC1p0sdf-138">
          <mxGeometry width="50" height="50" relative="1" as="geometry">
            <mxPoint y="80" as="sourcePoint"/>
            <mxPoint x="180" y="80" as="targetPoint"/>
          </mxGeometry>
        </mxCell>
        <mxCell id="kuAtARL2WekMiC1p0sdf-142" value="True" style="rounded=0;whiteSpace=wrap;html=1;fillColor=#ffffff;strokeColor=none;align=left;" vertex="1" parent="kuAtARL2WekMiC1p0sdf-129">
          <mxGeometry x="3" y="56" width="117" height="14" as="geometry"/>
        </mxCell>
        <mxCell id="kuAtARL2WekMiC1p0sdf-143" value="False" style="rounded=0;whiteSpace=wrap;html=1;fillColor=#ffffff;strokeColor=none;align=right;" vertex="1" parent="kuAtARL2WekMiC1p0sdf-129">
          <mxGeometry x="239.99999999999997" y="56" width="117" height="14" as="geometry"/>
        </mxCell>
        <mxCell id="kuAtARL2WekMiC1p0sdf-144" value="&lt;div&gt;button1.click(event.pos)&lt;/div&gt;" style="rounded=0;whiteSpace=wrap;html=1;fillColor=#ffffff;" vertex="1" parent="kuAtARL2WekMiC1p0sdf-127">
          <mxGeometry y="80" width="180" height="40" as="geometry"/>
        </mxCell>
        <mxCell id="kuAtARL2WekMiC1p0sdf-145" value="" style="rounded=0;whiteSpace=wrap;html=1;fillColor=#ffffff;" vertex="1" parent="kuAtARL2WekMiC1p0sdf-127">
          <mxGeometry x="180" y="80" width="180" height="40" as="geometry"/>
        </mxCell>
        <mxCell id="kuAtARL2WekMiC1p0sdf-147" value="&lt;div style=&quot;white-space: normal&quot;&gt;&lt;span&gt;button2.click(event.pos)&lt;/span&gt;&lt;/div&gt;" style="rounded=0;whiteSpace=wrap;html=1;strokeColor=#000000;fillColor=#FFFFFF;" vertex="1" parent="1">
          <mxGeometry x="400" y="760" width="180" height="40" as="geometry"/>
        </mxCell>
        <mxCell id="kuAtARL2WekMiC1p0sdf-149" value="&lt;div style=&quot;white-space: normal&quot;&gt;&lt;span&gt;button3.click(event.pos)&lt;/span&gt;&lt;br&gt;&lt;/div&gt;" style="rounded=0;whiteSpace=wrap;html=1;strokeColor=#000000;fillColor=#FFFFFF;" vertex="1" parent="1">
          <mxGeometry x="400" y="800" width="180" height="40" as="geometry"/>
        </mxCell>
      </root>
    </mxGraphModel>
  </diagram>
</mxfile>
